<svg width="19" height="24" fill="none" xmlns="http://www.w3.org/2000/svg"><path d="M18.28 23.471H.66V.55h8.926c1.91 0 3.47.34 4.677 1.02a7.114 7.114 0 0 1 2.766 2.701 7.443 7.443 0 0 1 .988 3.788 7.27 7.27 0 0 1-1.58 4.594 7.442 7.442 0 0 1-3.986 2.684l5.83 8.135ZM1.88 2.558V14.38h8.463L1.88 2.558Zm0 19.695h14.095l-4.808-6.686-1.021.033H1.879v6.653Zm.856-20.486 8.958 12.516a6.3 6.3 0 0 0 3.655-2.207 6.108 6.108 0 0 0 1.45-4.018 6.278 6.278 0 0 0-.89-3.294 5.844 5.844 0 0 0-2.503-2.272c-.966-.483-2.228-.725-3.787-.725H2.736Z" fill="#fff"/></svg>