<svg width="21" height="26" fill="none" xmlns="http://www.w3.org/2000/svg"><path d="M3.462 22.808C1.738 21.304.888 19.048.91 16.04h5.368c-.022 1.252.351 2.207 1.12 2.865.768.659 1.844.988 3.227.988 1.142 0 2.042-.186 2.7-.56.66-.373.989-.944.989-1.712 0-.637-.335-1.098-1.005-1.383a9.411 9.411 0 0 0-1.992-.61c-.659-.12-1.065-.194-1.219-.22a26.417 26.417 0 0 1-4.38-1.207 7.637 7.637 0 0 1-3.096-2.14c-.834-.967-1.251-2.24-1.251-3.821 0-1.58.417-2.926 1.251-4.034.834-1.11 1.949-1.938 3.343-2.487 1.455-.56 3.003-.84 4.561-.823 1.998 0 3.728.373 5.188 1.12 1.46.746 2.607 1.877 3.441 3.392.387.64.645 1.351.758 2.091.086.65.13 1.304.131 1.96h-5.368c0-1.186-.318-2.059-.955-2.619S12.096 6 10.757 6c-1.076 0-1.91.187-2.503.56-.593.374-.89.879-.89 1.515 0 .703.396 1.219 1.186 1.548a17.8 17.8 0 0 0 2.997.89c1.976.395 3.519.774 4.628 1.136a6.477 6.477 0 0 1 2.881 1.926c.813.923 1.219 2.218 1.219 3.887 0 1.58-.44 2.942-1.317 4.084-.879 1.141-2.037 2.014-3.475 2.618-1.477.611-3.062.92-4.66.906-3.184-.004-5.637-.758-7.361-2.262Z" fill="#fff"/></svg>