<svg width="18" height="24" viewBox="0 0 18 24" fill="none" xmlns="http://www.w3.org/2000/svg">
<path d="M9.8463 0.548859C11.2954 0.548859 12.4481 0.768422 13.3044 1.20755C14.2882 1.6875 15.1146 2.43834 15.6864 3.37182C16.2581 4.30529 16.5515 5.38259 16.532 6.47707C16.538 7.53211 16.2408 8.56666 15.6757 9.45764C15.1015 10.3714 14.2944 11.116 13.3374 11.6149C14.5257 12.034 15.5669 12.7891 16.3344 13.7885C17.131 14.7769 17.5615 16.0102 17.553 17.2796C17.5614 18.3889 17.2591 19.4785 16.6802 20.4248C16.1141 21.3647 15.3141 22.1419 14.3583 22.6808C13.8509 22.9533 13.3077 23.1529 12.7445 23.2737C12.1517 23.4054 11.3613 23.4713 10.3733 23.4713H0.229431V0.548859H9.8463Z" fill="white"/>
</svg>
