<svg width="8" height="11" viewBox="0 0 8 11" fill="none" xmlns="http://www.w3.org/2000/svg">
<path d="M4.34927 0.137817C4.98304 0.137817 5.48718 0.233844 5.86168 0.425897C6.29196 0.635805 6.65337 0.964188 6.90343 1.37244C7.15348 1.7807 7.28179 2.25186 7.27327 2.73053C7.27589 3.19195 7.1459 3.64442 6.89877 4.03409C6.64762 4.43375 6.29465 4.75937 5.87609 4.97755C6.39583 5.16085 6.85118 5.4911 7.18685 5.92821C7.53524 6.36047 7.72351 6.89986 7.71979 7.45503C7.72348 7.9402 7.59125 8.41671 7.33809 8.83061C7.09048 9.24167 6.74063 9.5816 6.32261 9.81728C6.1007 9.93644 5.8631 10.0237 5.61682 10.0766C5.35754 10.1342 5.01185 10.163 4.57973 10.163H0.143311V0.137817H4.34927Z" fill="white"/>
</svg>
