<svg width="13" height="17" viewBox="0 0 13 17" fill="none" xmlns="http://www.w3.org/2000/svg">
<path d="M7.225 0.0201416C8.28833 0.0201416 9.13417 0.181253 9.7625 0.503475C10.4844 0.855654 11.0908 1.40661 11.5103 2.09157C11.9299 2.77653 12.1451 3.56703 12.1308 4.37014C12.1352 5.14431 11.9171 5.90344 11.5025 6.55722C11.0811 7.22776 10.4889 7.77409 9.78666 8.14014C10.6587 8.44768 11.4227 9.00177 11.9858 9.73514C12.5704 10.4604 12.8862 11.3654 12.88 12.2968C12.8862 13.1108 12.6643 13.9103 12.2396 14.6047C11.8241 15.2944 11.2372 15.8647 10.5358 16.2601C10.1635 16.4601 9.76487 16.6065 9.35167 16.6951C8.91667 16.7918 8.33667 16.8401 7.61167 16.8401H0.168335V0.0201416H7.225Z" fill="white"/>
</svg>
