<svg width="19" height="24" viewBox="0 0 19 24" fill="none" xmlns="http://www.w3.org/2000/svg">
<path d="M18.2807 23.4713H0.660736V0.548859H9.58599C11.4962 0.548859 13.0551 0.88918 14.2627 1.56983C15.4165 2.19739 16.374 3.13212 17.0292 4.27046C17.6905 5.42219 18.0317 6.7299 18.0172 8.05792C18.0328 9.72536 17.4746 11.3475 16.4364 12.6523C15.4413 13.963 14.0399 14.9069 12.4513 15.3364L18.2807 23.4713ZM1.87932 2.55786V14.3813H10.3435L1.87932 2.55786ZM1.87932 22.2527H15.9753L11.1668 15.567L10.1459 15.5999H1.87932V22.2527ZM2.73561 1.76743L11.6938 14.2825C13.1321 13.995 14.425 13.2146 15.3495 12.0759C16.3004 10.9546 16.8149 9.52801 16.7986 8.05792C16.8119 6.89908 16.5041 5.75918 15.9094 4.76448C15.3172 3.77691 14.4464 2.98633 13.4064 2.49199C12.4403 2.00896 11.1778 1.76743 9.61893 1.76743H2.73561Z" fill="white"/>
</svg>
