<svg width="9" height="11" viewBox="0 0 9 11" fill="none" xmlns="http://www.w3.org/2000/svg">
<path d="M8.64557 10.163H0.939453V0.137817H4.84293C5.67836 0.137817 6.36014 0.286658 6.88829 0.58434C7.3929 0.858805 7.81168 1.26761 8.09823 1.76547C8.38747 2.26918 8.53667 2.84111 8.53034 3.42192C8.53715 4.15118 8.29305 4.86061 7.83895 5.43127C7.40376 6.00451 6.79084 6.41735 6.09607 6.60519L8.64557 10.163ZM1.4724 1.01646V6.18748H5.17422L1.4724 1.01646ZM1.4724 9.63002H7.63729L5.53432 6.70603L5.08779 6.72043H1.4724V9.63002ZM1.8469 0.670763L5.76478 6.14427C6.39381 6.01849 6.95926 5.67719 7.36362 5.1792C7.77947 4.6888 8.0045 4.06487 7.99739 3.42192C8.00318 2.9151 7.86858 2.41656 7.60849 1.98153C7.34948 1.54961 6.96864 1.20385 6.51379 0.987652C6.09127 0.776394 5.53912 0.670763 4.85733 0.670763H1.8469Z" fill="white"/>
</svg>
