<svg width="13" height="17" viewBox="0 0 13 17" fill="none" xmlns="http://www.w3.org/2000/svg">
<path d="M13 16.8401H0.0708008V0.0201416H6.61997C8.02164 0.0201416 9.16552 0.269863 10.0516 0.769307C10.8983 1.2298 11.6009 1.91569 12.0816 2.75098C12.5669 3.59609 12.8172 4.55566 12.8066 5.53014C12.8181 6.75367 12.4085 7.94393 11.6466 8.90139C10.9165 9.86316 9.88814 10.5558 8.72247 10.871L13 16.8401ZM0.964975 1.49431V10.1701H7.1758L0.964975 1.49431ZM0.964975 15.946H11.3083L7.77997 11.0401L7.0308 11.0643H0.964975V15.946ZM1.5933 0.914306L8.16663 10.0976C9.22201 9.88662 10.1707 9.31399 10.8491 8.47847C11.5468 7.65568 11.9244 6.60886 11.9125 5.53014C11.9222 4.6798 11.6963 3.84337 11.26 3.11348C10.8254 2.38882 10.1864 1.80871 9.42331 1.44598C8.71442 1.09153 7.78803 0.914306 6.64414 0.914306H1.5933Z" fill="white"/>
</svg>
