<svg width="21" height="26" viewBox="0 0 21 26" fill="none" xmlns="http://www.w3.org/2000/svg">
<path d="M3.46199 22.8081C1.73841 21.3041 0.887607 19.048 0.909563 16.04H6.27789C6.25593 17.2915 6.62918 18.2466 7.39765 18.9053C8.16613 19.564 9.24199 19.8934 10.6252 19.8934C11.767 19.8934 12.6672 19.7067 13.3259 19.3335C13.9846 18.9602 14.3139 18.3893 14.3139 17.6209C14.3139 16.9841 13.9791 16.5231 13.3094 16.2376C12.6698 15.9614 12.0016 15.757 11.3169 15.6283C10.6582 15.5076 10.252 15.4344 10.0983 15.4088C8.60622 15.1328 7.1407 14.7288 5.718 14.2012C4.5236 13.7571 3.45933 13.0211 2.62215 12.0604C1.78781 11.0944 1.37065 9.82088 1.37065 8.24003C1.37065 6.65917 1.78781 5.31436 2.62215 4.20556C3.45649 3.09677 4.57078 2.26791 5.96501 1.719C7.41985 1.15898 8.96761 0.879602 10.5264 0.895643C12.5245 0.895643 14.2535 1.2689 15.7136 2.01542C17.1737 2.76193 18.3209 3.89268 19.1553 5.40767C19.5424 6.04837 19.7998 6.75897 19.9128 7.499C19.9992 8.14864 20.0433 8.80325 20.0445 9.45862H14.6762C14.6762 8.27297 14.3578 7.4002 13.7211 6.84031C13.0843 6.28043 12.0963 6.00049 10.757 6.00049C9.68112 6.00049 8.84678 6.18712 8.25396 6.56038C7.66114 6.93364 7.36472 7.43862 7.36472 8.07536C7.36472 8.77796 7.75993 9.29394 8.55036 9.62329C9.52137 10.007 10.5243 10.3046 11.5474 10.5125C13.5235 10.9077 15.0659 11.2865 16.1747 11.6488C17.2925 12.0172 18.2888 12.6833 19.0565 13.5754C19.8688 14.4976 20.275 15.793 20.275 17.4617C20.275 19.0425 19.8359 20.4038 18.9577 21.5456C18.0794 22.6873 16.9212 23.5601 15.4831 24.1639C14.0061 24.7753 12.4213 25.0833 10.8228 25.0696C7.63918 25.0659 5.18556 24.3121 3.46199 22.8081Z" fill="white"/>
</svg>
