<svg width="9" height="12" viewBox="0 0 9 12" fill="none" xmlns="http://www.w3.org/2000/svg">
<path d="M1.23795 10.4356C0.484141 9.77781 0.112039 8.79114 0.121641 7.47557H2.46949C2.45989 8.02293 2.62313 8.44064 2.95922 8.72872C3.29531 9.0168 3.76584 9.16084 4.37081 9.16084C4.87015 9.16084 5.26385 9.07922 5.55193 8.91597C5.84001 8.75273 5.98405 8.50306 5.98405 8.16697C5.98405 7.88849 5.83761 7.68684 5.54473 7.562C5.26502 7.44118 4.97274 7.3518 4.67329 7.29553C4.38521 7.24271 4.20757 7.2107 4.14035 7.1995C3.48779 7.0788 2.84684 6.9021 2.22462 6.67135C1.70225 6.47712 1.23678 6.15526 0.870646 5.7351C0.505746 5.31258 0.323297 4.75562 0.323297 4.06423C0.323297 3.37284 0.505746 2.78469 0.870646 2.29975C1.23555 1.81482 1.72288 1.45232 2.33265 1.21225C2.96893 0.967325 3.64584 0.845138 4.3276 0.852153C5.20144 0.852153 5.95764 1.0154 6.59622 1.34189C7.2348 1.66838 7.73654 2.16292 8.10144 2.8255C8.27077 3.10571 8.38333 3.41649 8.43272 3.74015C8.47055 4.02427 8.4898 4.31056 8.49034 4.59719H6.1425C6.1425 4.07864 6.00326 3.69693 5.72478 3.45207C5.44631 3.2072 5.01419 3.08477 4.42843 3.08477C3.9579 3.08477 3.593 3.16639 3.33373 3.32964C3.07445 3.49288 2.94482 3.71374 2.94482 3.99221C2.94482 4.2995 3.11766 4.52517 3.46336 4.66921C3.88803 4.83703 4.32664 4.96716 4.77412 5.05811C5.63836 5.23096 6.31294 5.3966 6.79788 5.55505C7.28675 5.7162 7.72247 6.00751 8.05822 6.39768C8.41352 6.80099 8.59117 7.36754 8.59117 8.09734C8.59117 8.78873 8.39912 9.3841 8.01501 9.88344C7.63091 10.3828 7.12437 10.7645 6.49539 11.0286C5.84945 11.296 5.15631 11.4307 4.45723 11.4247C3.06485 11.4231 1.99176 11.0934 1.23795 10.4356Z" fill="white"/>
</svg>
