<svg width="15" height="19" viewBox="0 0 15 19" fill="none" xmlns="http://www.w3.org/2000/svg">
<path d="M2.56035 16.6197C1.29563 15.5161 0.671327 13.8607 0.687438 11.6535H4.62661C4.61049 12.5718 4.88438 13.2726 5.44827 13.756C6.01216 14.2393 6.8016 14.481 7.8166 14.481C8.65438 14.481 9.31493 14.344 9.79827 14.0701C10.2816 13.7962 10.5233 13.3773 10.5233 12.8135C10.5233 12.3462 10.2776 12.0079 9.78619 11.7985C9.31689 11.5957 8.82652 11.4458 8.3241 11.3514C7.84077 11.2628 7.54271 11.2091 7.42994 11.1903C6.33509 10.9878 5.25972 10.6913 4.21577 10.3042C3.33934 9.97828 2.5584 9.43827 1.9441 8.73332C1.33188 8.02443 1.02577 7.08998 1.02577 5.92999C1.02577 4.76999 1.33188 3.78319 1.9441 2.96957C2.55632 2.15596 3.37396 1.54777 4.39702 1.14499C5.46455 0.734056 6.60027 0.529054 7.7441 0.540824C9.21021 0.540824 10.479 0.814714 11.5503 1.36249C12.6217 1.91027 13.4635 2.73999 14.0758 3.85166C14.3599 4.32179 14.5487 4.84321 14.6316 5.38624C14.6951 5.86293 14.7274 6.34326 14.7283 6.82416H10.7891C10.7891 5.95416 10.5555 5.31374 10.0883 4.9029C9.62105 4.49207 8.89605 4.28666 7.91327 4.28666C7.12383 4.28666 6.5116 4.4236 6.0766 4.69749C5.6416 4.97138 5.4241 5.34193 5.4241 5.80915C5.4241 6.32471 5.7141 6.70333 6.2941 6.94499C7.0066 7.22656 7.7425 7.4449 8.49327 7.59749C9.94327 7.88749 11.0751 8.1654 11.8887 8.43124C12.7089 8.70161 13.4399 9.19037 14.0033 9.84499C14.5994 10.5217 14.8974 11.4722 14.8974 12.6966C14.8974 13.8566 14.5752 14.8555 13.9308 15.6933C13.2863 16.5311 12.4365 17.1715 11.3812 17.6146C10.2974 18.0632 9.1345 18.2892 7.9616 18.2792C5.62549 18.2765 3.82508 17.7233 2.56035 16.6197Z" fill="white"/>
</svg>
